# AST/ASF file generated using VICON BodyLanguage
# -----------------------------------------------
:version 1.10
:name VICON
:units
  mass 1.0
  length 0.45
  angle deg
:documentation
   .ast/.asf automatically generated from VICON data using
   VICON BodyBuilder and BodyLanguage model FoxedUp or BRILLIANT.MOD
:root
   order TX TY TZ RX RY RZ
   axis XYZ
   position 0 0 0  
   orientation 0 0 0 
:bonedata
  begin
     id 1 
     name lhipjoint
     direction 0.567149 -0.783011 0.255413 
     length 2.28399 
     axis 0 0 0  XYZ
  end
  begin
     id 2 
     name lfemur
     direction 0.34202 -0.939693 0  
     length 7.34031  
     axis 0 0 20  XYZ
    dof rx ry rz
    limits (-160.0 20.0)
           (-70.0 70.0)
           (-60.0 70.0)
  end
  begin
     id 3 
     name ltibia
     direction 0.34202 -0.939693 0   
     length 6.9833   
     axis 0 0 20   XYZ
    dof rx
    limits (-10.0 170.0)
  end
  begin
     id 4 
     name lfoot
     direction 0.136498 -0.375025 0.91691   
     length 2.33665   
     axis -90 7.62852e-016 20   XYZ
    dof rx rz
    limits (-45.0 90.0)
           (-70.0 20.0)
  end
  begin
     id 5 
     name ltoes
     direction 1.5367e-011 -4.21617e-011 1   
     length 1.15039   
     axis -90 7.62852e-016 20   XYZ
    dof rx
    limits (-90.0 20.0)
  end
  begin
     id 6 
     name rhipjoint
     direction -0.602854 -0.758518 0.247423   
     length 2.35775  
     axis 0 0 0  XYZ 
  end
  begin
     id 7 
     name rfemur
     direction -0.34202 -0.939693 0   
     length 7.43932   
     axis 0 0 -20   XYZ
    dof rx ry rz
    limits (-160.0 20.0)
           (-70.0 70.0)
           (-70.0 60.0)
  end
  begin
     id 8 
     name rtibia
     direction -0.34202 -0.939693 0   
     length 7.11893   
     axis 0 0 -20   XYZ
    dof rx
    limits (-10.0 170.0)
 end
 begin
     id 9 
     name rfoot
     direction -0.131771 -0.362037 0.922803   
     length 2.53019  
     axis -90 -7.62852e-016 -20   XYZ
    dof rx rz
    limits (-45.0 90.0)
           (-20.0 70.0)
  end
  begin
     id 10 
     name rtoes
     direction -1.53733e-011 -4.21932e-011 1   
     length 1.24596   
     axis -90 -7.62852e-016 -20   XYZ
    dof rx
    limits (-90.0 20.0)
  end
  begin
     id 11 
     name lowerback
     direction 0.0235427 0.999023 -0.0374125   
     length 2.21768   
     axis 0 0 0   XYZ
    dof rx ry rz
    limits (-20.0 45.0)
           (-30.0 30.0)
           (-30.0 30.0)
  end
  begin
     id 12 
     name upperback
     direction 0.0302156 0.996818 -0.073759   
     length 2.20352   
     axis 0 0 0   XYZ
    dof rx ry rz
    limits (-20.0 45.0)
           (-30.0 30.0)
           (-30.0 30.0)
  end
  begin
     id 13 
     name thorax
     direction 0.0187169 0.998235 -0.0563532   
     length 2.22103   
     axis 0 0 0   XYZ
    dof rx ry rz
    limits (-20.0 45.0)
           (-30.0 30.0)
           (-30.0 30.0)
  end
  begin
     id 14 
     name lowerneck
     direction -0.119528 0.987423 0.103481   
     length 1.72948   
     axis 0 0 0   XYZ
    dof rx ry rz
    limits (-20.0 45.0)
           (-30.0 30.0)
           (-30.0 30.0)
  end
  begin
     id 15 
     name upperneck
     direction 0.248049 0.963095 -0.104496   
     length 1.74979   
     axis 0 0 0   XYZ
    dof rx ry rz
    limits (-20.0 45.0)
           (-30.0 30.0)
           (-30.0 30.0)
  end
  begin
     id 16
     name head
     direction 0.0903589 0.994284 -0.056876  
     length 1.78268  
     axis 0 0 0   XYZ
    dof rx ry rz
    limits (-20.0 45.0)
           (-30.0 30.0)
           (-30.0 30.0)
  end
  begin
     id 17 
     name lclavicle
     direction 0.946008 0.242039 -0.215608  
     length 3.80783  
     axis 0 0 0   XYZ
    dof ry rz
    limits (-20.0 10.0)
           (0.0 20.0)
  end
  begin
     id 18 
     name lhumerus
     direction 1 -4.48991e-011 -2.25695e-027   
     length 4.83125   
     axis 180 -30 -90   XYZ
    dof rx ry rz
    limits (-60.0 90.0)
           (-90.0 90.0)
           (-90.0 90.0)
  end
  begin
     id 19
     name lradius
     direction 0.999991 0.00366712 -0.00211721   
     length 3.00391   
     axis 180 -30 -90   XYZ
    dof rx
    limits (-10.0 170.0)
  end
  begin
     id 20
     name lwrist
     direction 0.999991 0.00393016 -0.00141978   
     length 1.50195   
     axis -1.00488e-014 90 90   XYZ
    dof ry
    limits (-180.0 0.0)
 end
  begin
     id 21 
     name lhand
     direction 1 -4.49123e-011 2.72098e-026   
     length 1.2717   
     axis -1.73687e-014 90 90   XYZ
    dof rx rz
    limits (-90.0 90.0)
           (-45.0 45.0)
  end
  begin
     id 22 
     name lfingers
     direction 1 -4.48678e-011 5.4479e-026   
     length 1.02528   
     axis -3.47372e-014 90 90   XYZ
    dof rx
    limits (0.0 90.0)
  end
  begin
     id 23
     name lthumb
     direction 0.707107 -6.34851e-011 0.707107   
     length 1.4721   
     axis -90 45 -1.62303e-014   XYZ
    dof rx rz
    limits (-45.0 45.0)
           (-45.0 45.0)
  end
  begin
     id 24 
     name rclavicle
     direction -0.981723 0.189447 -0.0181673   
     length 3.74989  
     axis 0 0 0   XYZ 
    dof ry rz
    limits (-10.0 20.0)
           (-20.0 0.0)
  end
  begin
     id 25 
     name rhumerus
     direction -1 -4.48985e-011 2.38206e-027  
     length 4.61118   
     axis 180 30 90   XYZ
    dof rx ry rz
    limits (-90.0 60.0)
           (-90.0 90.0)
           (-90.0 90.0)
  end
  begin
     id 26 
     name rradius
     direction -1 -4.48977e-011 7.41019e-027   
     length 2.91491   
     axis 180 30 90   XYZ
    dof rx
    limits (-10.0 170.0)
  end
  begin
     id 27 
     name rwrist
     direction -1 -4.48549e-011 1.3624e-026   
     length 1.45745   
     axis -1.00488e-014 -90 -90   XYZ
    dof ry
    limits (-180.0 0.0)
  end
  begin
     id 28
     name rhand
     direction -1 -4.49107e-011 2.72109e-026   
     length 1.30769   
     axis -1.73687e-014 -90 -90   XYZ
    dof rx rz
    limits (-90.0 90.0)
           (-45.0 45.0)
  end
  begin
     id 29
     name rfingers
     direction -1 -4.48919e-011 5.44468e-026   
     length 1.05429   
     axis -3.47372e-014 -90 -90   XYZ
    dof rx
    limits (0.0 90.0)
  end
  begin
     id 30
     name rthumb
     direction -0.707107 -6.35315e-011 0.707107   
     length 1.51376   
     axis -90 -45 1.62303e-014   XYZ
    dof rx rz
    limits (-45.0 45.0)
           (-45.0 45.0)
  end
:hierarchy
  begin
    root lhipjoint rhipjoint lowerback
    lhipjoint lfemur
    lfemur ltibia
    ltibia lfoot
    lfoot ltoes
    rhipjoint rfemur
    rfemur rtibia
    rtibia rfoot
    rfoot rtoes
    lowerback upperback
    upperback thorax
    thorax lowerneck lclavicle rclavicle
    lowerneck upperneck
    upperneck head
    lclavicle lhumerus
    lhumerus lradius
    lradius lwrist
    lwrist lhand lthumb
    lhand lfingers
    rclavicle rhumerus
    rhumerus rradius
    rradius rwrist
    rwrist rhand rthumb
    rhand rfingers
  end

#!OML:ASF X:\für Bonn\!DataBase\2005_08_11_Bastian_Final\c3d\Bastian.ASF
:FULLY-SPECIFIED
:DEGREES
18
root 2.90788 19.0761 2.49295 720.163 3.13747 -1.31785
lowerback -7.17068 -2.99346 -2.4498
upperback -0.489234 -3.78572 -0.00916883
thorax 3.66746 -1.91803 0.971557
lowerneck -3.44979 -1.74888 -2.91409
upperneck 4.47704 -2.54727 7.08272
head 2.18247 -1.14658 2.7323
rclavicle 2.22639e-014 1.59028e-015
rhumerus -47.2561 26.4694 -87.5735
rradius 91.1111
rwrist 5.74651
rhand -14.2598 23.4187
rfingers 7.12502
rthumb 11.8786 -6.22431
lclavicle 2.22639e-014 1.59028e-015
lhumerus -30.1418 -11.6422 74.3815
lradius 97.8925
lwrist 204.65
lhand -29.4542 14.196
lfingers 7.12502
lthumb -2.79033 44.1574
rfemur -4.3741 8.20962 22.0232
rtibia 36.5386
rfoot -4.3608 -6.81736
rtoes -54.2015
lfemur 0.0498259 -3.77962 -15.509
ltibia 39.089
lfoot 15.295 -11.3729
ltoes -37.2695
19
root 2.87557 19.3913 2.70442 720.439 3.80851 -1.43587
lowerback -7.72042 -3.22625 -2.59578
upperback -0.619334 -4.06531 -0.0572167
thorax 3.85712 -2.05792 0.945434
lowerneck -3.31891 -1.78986 -2.84558
upperneck 5.23789 -2.64304 6.96024
head 2.41142 -1.18787 2.68194
rclavicle 1.61513e-014 -2.38542e-015
rhumerus -47.383 26.7546 -87.0452
rradius 93.731
rwrist 5.66319
rhand -14.2908 23.5715
rfingers 7.12502
rthumb 11.8487 -6.07328
lclavicle 1.61513e-014 -2.38542e-015
lhumerus -29.7587 -11.6002 73.4408
lradius 100.604
lwrist 205.603
lhand -30.0907 13.0083
lfingers 7.12502
lthumb -3.40506 42.9608
rfemur -4.24639 9.03894 22.5508
rtibia 36.2011
rfoot -1.37801 -6.96214
rtoes -54.8617
lfemur -0.910778 -3.27207 -14.9006
ltibia 39.7062
lfoot 17.5029 -10.863
ltoes -38.1027
20
root 2.84431 19.6883 2.89859 720.709 4.43909 -1.6504
lowerback -8.06038 -3.44466 -2.67148
upperback -0.650102 -4.33905 -0.0358293
thorax 4.03311 -2.19534 0.957674
lowerneck -3.4661 -1.81839 -2.78354
upperneck 5.88613 -2.7123 6.8527
head 2.6552 -1.21236 2.63774
rclavicle 2.68608e-014 -1.03368e-014
rhumerus -47.2838 26.8584 -86.395
rradius 96.4174
rwrist 5.3106
rhand -14.0148 23.6633
rfingers 7.12502
rthumb 12.1149 -5.96595
lclavicle 2.68608e-014 -1.03368e-014
lhumerus -29.2636 -11.1617 72.6326
lradius 103.088
lwrist 206.685
lhand -30.7575 11.9753
lfingers 7.12502
lthumb -4.04901 41.9165
rfemur -4.635 9.24127 23.059
rtibia 36.4891
rfoot 1.46434 -6.33095
rtoes -55.1836
lfemur -2.12218 -2.49896 -14.2075
ltibia 40.7979
lfoot 18.9059 -10.0568
ltoes -38.0035
21
root 2.81479 19.9639 3.07849 720.944 5.04098 -1.89032
lowerback -8.19476 -3.6251 -2.6825
upperback -0.644857 -4.57367 -0.0298166
thorax 4.12442 -2.31215 0.932412
lowerneck -3.43302 -1.8569 -2.66116
upperneck 6.19019 -2.78238 6.7629
head 2.75 -1.24339 2.58504
rclavicle -1.12313e-014 7.15625e-015
rhumerus -47.1997 26.7195 -85.7576
rradius 99.1101
rwrist 4.88784
rhand -13.6514 23.7156
rfingers 7.12502
rthumb 12.4652 -5.89265
lclavicle -1.12313e-014 7.15625e-015
lhumerus -28.8695 -10.6343 71.9698
lradius 105.289
lwrist 207.66
lhand -31.0618 11.5795
lfingers 7.12502
lthumb -4.34281 41.515
rfemur -5.3811 8.97811 23.506
rtibia 37.2939
rfoot 3.84467 -4.88973
rtoes -55.1231
lfemur -3.53467 -1.60391 -13.553
ltibia 42.2922
lfoot 19.6136 -8.94043
ltoes -37.2864
22
root 2.78681 20.2212 3.24995 721.113 5.62354 -2.10555
lowerback -8.15421 -3.79458 -2.73706
upperback -0.568259 -4.79593 -0.000985421
thorax 4.19746 -2.42471 0.964197
lowerneck -3.34923 -1.87384 -2.60362
upperneck 6.23069 -2.81285 6.78185
head 2.7488 -1.25752 2.58024
rclavicle 5.28519e-014 6.75868e-015
rhumerus -47.0688 26.4085 -85.0858
rradius 101.665
rwrist 4.36906
rhand -13.1674 23.8039
rfingers 7.12502
rthumb 12.9319 -5.77541
lclavicle 5.28519e-014 6.75868e-015
lhumerus -28.5503 -9.90886 71.524
lradius 107.055
lwrist 208.632
lhand -31.0041 12.0506
lfingers 7.12502
lthumb -4.28712 41.9872
rfemur -6.3378 8.41844 23.8687
rtibia 38.5384
rfoot 5.51098 -2.99443
rtoes -54.4761
lfemur -5.07419 -0.671275 -13.0011
ltibia 44.1029
lfoot 19.7002 -8.20742
ltoes -37.4676
23
root 2.76072 20.4616 3.41217 721.227 6.20924 -2.23674
lowerback -7.89782 -3.9613 -2.86122
upperback -0.456201 -5.01559 0.0291633
thorax 4.19343 -2.53765 1.04974
lowerneck -3.31321 -1.89469 -2.53971
upperneck 6.16656 -2.84059 6.77166
head 2.72018 -1.27161 2.56331
rclavicle 3.37437e-014 1.51076e-014
rhumerus -46.9691 26.0162 -84.4231
rradius 104.113
rwrist 3.73477
rhand -12.652 23.7871
rfingers 7.12502
rthumb 13.4287 -5.76003
lclavicle 3.37437e-014 1.51076e-014
lhumerus -28.3779 -9.05691 71.3028
lradius 108.675
lwrist 209.547
lhand -30.5887 12.868
lfingers 7.12502
lthumb -3.88601 42.8123
rfemur -7.36443 7.54185 24.0644
rtibia 39.9791
rfoot 6.65738 -1.05631
rtoes -53.7434
lfemur -6.68108 0.202757 -12.6369
ltibia 46.0834
lfoot 19.5034 -7.78861
ltoes -38.8587
24
root 2.73847 20.6778 3.56221 721.264 6.78904 -2.21194
lowerback -7.39949 -4.10756 -3.08865
upperback -0.302008 -5.20572 -0.000704997
thorax 4.10124 -2.6377 1.15094
lowerneck -3.28574 -1.93019 -2.45836
upperneck 5.99197 -2.88654 6.81805
head 2.65817 -1.29421 2.5607
rclavicle 2.38542e-015 -6.36111e-015
rhumerus -46.9028 25.4638 -83.8548
rradius 106.341
rwrist 2.82446
rhand -12.0777 23.7641
rfingers 7.12502
rthumb 13.9821 -5.74573
lclavicle 2.38542e-015 -6.36111e-015
lhumerus -28.32 -8.17091 71.1683
lradius 110.233
lwrist 210.525
lhand -29.9419 13.9634
lfingers 7.12502
lthumb -3.26133 43.9182
rfemur -8.40113 6.40203 23.9801
rtibia 41.518
rfoot 7.57715 0.458315
rtoes -52.7937
lfemur -8.25112 0.979036 -12.5336
ltibia 48.0961
lfoot 19.3074 -7.21306
ltoes -39.6128
25
root 2.71739 20.8831 3.70734 720.78 7.34186 -2.65491
lowerback -6.28373 -4.19151 -2.8329
upperback 0.00629663 -5.3789 0.0979204
thorax 3.79086 -2.7232 1.16248
lowerneck -3.38888 -1.98403 -2.4768
upperneck 5.83138 -2.95425 6.91437
head 2.63022 -1.32604 2.59274
rclavicle -6.70401e-014 3.97569e-016
rhumerus -46.8014 24.8584 -83.2904
rradius 108.315
rwrist 1.61044
rhand -11.5494 23.8431
rfingers 7.12502
rthumb 14.4912 -5.63086
lclavicle -6.70401e-014 3.97569e-016
lhumerus -28.3248 -7.25848 71.2436
lradius 111.789
lwrist 211.377
lhand -29.8332 14.4648
lfingers 7.12502
lthumb -3.15635 44.4212
rfemur -8.89109 5.39747 24.4684
rtibia 43.0121
rfoot 8.21845 1.04194
rtoes -52.0459
lfemur -9.27037 1.64381 -11.9414
ltibia 50.0085
lfoot 19.0334 -6.55078
ltoes -39.6571
26
root 2.69881 21.0852 3.85112 720.084 7.82649 -3.07199
lowerback -4.8052 -4.24241 -2.55011
upperback 0.321535 -5.51242 0.171098
thorax 3.27518 -2.78754 1.17014
lowerneck -3.446 -2.02601 -2.43399
upperneck 5.6705 -3.00743 6.97588
head 2.59048 -1.35116 2.6022
rclavicle 6.00081e-015 -7.15625e-015
rhumerus -46.8883 24.2324 -82.8561
rradius 110.088
rwrist 0.667856
rhand -11.2015 23.896
rfingers 7.12502
rthumb 14.8263 -5.55359
lclavicle 6.00081e-015 -7.15625e-015
lhumerus -28.5573 -6.44367 71.37
lradius 113.447
lwrist 212.239
lhand -30.1258 14.1337
lfingers 7.12502
lthumb -3.43896 44.0857
rfemur -9.15121 4.35929 24.8869
rtibia 44.4548
rfoot 8.48921 1.24167
rtoes -51.7433
lfemur -9.99469 2.20569 -11.4138
ltibia 51.7333
lfoot 18.5978 -5.65301
ltoes -39.1799
27
root 2.68125 21.2881 3.99384 719.487 8.2881 -3.303
lowerback -3.34171 -4.27979 -2.40971
upperback 0.626741 -5.60945 0.197453
thorax 2.76323 -2.83532 1.21535
lowerneck -3.55765 -2.09338 -2.39964
upperneck 5.48836 -3.09283 7.04176
head 2.55592 -1.39179 2.61324
rclavicle 1.86112e-014 -1.59028e-015
rhumerus -47.0093 23.4764 -82.4551
rradius 111.575
rwrist 0.361065
rhand -11.0324 23.8967
rfingers 7.12502
rthumb 14.9893 -5.54083
lclavicle 1.86112e-014 -1.59028e-015
lhumerus -28.8728 -5.76455 71.5552
lradius 115.317
lwrist 212.946
lhand -30.0865 13.2724
lfingers 7.12502
lthumb -3.40101 43.225
rfemur -9.46588 3.32914 25.0511
rtibia 45.7373
rfoot 8.48006 1.03944
rtoes -51.6959
lfemur -10.7528 2.62878 -11.1339
ltibia 53.2108
lfoot 18.0993 -4.5601
ltoes -37.9624
28
root 2.66479 21.4903 4.13797 718.96 8.66129 -3.40744
lowerback -1.91007 -4.28087 -2.32931
upperback 0.922591 -5.64855 0.166655
thorax 2.25643 -2.85391 1.23999
lowerneck -3.64569 -2.168 -2.36094
upperneck 5.24203 -3.18691 7.14656
head 2.49709 -1.43721 2.63593
rclavicle 9.11335e-014 -1.43125e-014
rhumerus -47.2574 22.7319 -82.1959
rradius 112.767
rwrist 0.197744
rhand -10.9903 23.9799
rfingers 7.12502
rthumb 15.0298 -5.4546
lclavicle 9.11335e-014 -1.43125e-014
lhumerus -29.3367 -5.35104 71.7539
lradius 116.96
lwrist 213.379
lhand -29.4926 13.35
lfingers 7.12502
lthumb -2.82748 43.311
rfemur -9.80484 2.37673 25.0341
rtibia 46.8622
rfoot 8.19268 0.558856
rtoes -51.7517
lfemur -11.4991 3.0245 -11.0368
ltibia 54.4615
lfoot 17.5341 -3.31486
ltoes -35.8327
29
root 2.64782 21.691 4.2836 718.573 8.95972 -3.50752
lowerback -0.629837 -4.25359 -2.24887
upperback 1.23635 -5.64305 0.161229
thorax 1.85359 -2.85067 1.28021
lowerneck -3.93869 -2.26719 -2.30296
upperneck 5.01171 -3.31283 7.21792
head 2.48201 -1.49496 2.64192
rclavicle -1.36354e-014 4.77083e-015
rhumerus -47.5595 22.0264 -82.0862
rradius 113.615
rwrist -0.330011
rhand -11.0272 24.2847
rfingers 7.12502
rthumb 14.9942 -5.15246
lclavicle -1.36354e-014 4.77083e-015
lhumerus -29.8123 -5.10829 72.0577
lradius 118.119
lwrist 213.692
lhand -28.391 14.4864
lfingers 7.12502
lthumb -1.76353 44.4588
rfemur -10.2308 1.59491 25.0055
rtibia 47.7405
rfoot 7.78169 -0.209993
rtoes -51.5209
lfemur -12.351 3.48305 -10.9795
ltibia 55.5045
lfoot 17.0076 -2.30856
ltoes -33.1966
30
root 2.63321 21.8758 4.41974 718.289 9.18321 -3.69577
lowerback 0.586183 -4.19977 -2.01064
upperback 1.572 -5.59785 0.169805
thorax 1.49407 -2.82559 1.24254
lowerneck -4.46582 -2.36842 -2.21281
upperneck 4.81177 -3.44587 7.30532
head 2.5206 -1.55017 2.64624
rclavicle 4.52732e-014 -3.18055e-015
rhumerus -47.6701 21.2161 -81.9904
rradius 114.348
rwrist -0.683217
rhand -10.7477 24.2793
rfingers 7.12502
rthumb 15.2635 -5.13753
lclavicle 4.52732e-014 -3.18055e-015
lhumerus -30.3609 -4.90934 72.294
lradius 119.236
lwrist 213.959
lhand -27.3561 15.8992
lfingers 7.12502
lthumb -0.764002 45.8776
rfemur -10.7588 0.917765 25.0403
rtibia 48.3079
rfoot 7.08154 -1.25569
rtoes -51.0759
lfemur -13.3215 3.97204 -10.8789
ltibia 56.3726
lfoot 16.611 -1.51857
ltoes -30.1978
